<?xml version="1.0" encoding="UTF-8" standalone="no"?>
<!-- Created with Inkscape (http://www.inkscape.org/) -->

<svg
   width="15.408761mm"
   height="14.967405mm"
   viewBox="0 0 15.408761 14.967405"
   version="1.1"
   id="svg370"
   inkscape:version="1.1.2 (b8e25be833, 2022-02-05)"
   sodipodi:docname="logos.svg"
   xmlns:inkscape="http://www.inkscape.org/namespaces/inkscape"
   xmlns:sodipodi="http://sodipodi.sourceforge.net/DTD/sodipodi-0.dtd"
   xmlns="http://www.w3.org/2000/svg"
   xmlns:svg="http://www.w3.org/2000/svg">
  <sodipodi:namedview
     id="namedview372"
     pagecolor="#ffffff"
     bordercolor="#666666"
     borderopacity="1.0"
     inkscape:pageshadow="2"
     inkscape:pageopacity="0.0"
     inkscape:pagecheckerboard="0"
     inkscape:document-units="mm"
     showgrid="false"
     inkscape:zoom="2.1946698"
     inkscape:cx="10.707761"
     inkscape:cy="67.891763"
     inkscape:window-width="1920"
     inkscape:window-height="1057"
     inkscape:window-x="-8"
     inkscape:window-y="-8"
     inkscape:window-maximized="1"
     inkscape:current-layer="layer1" />
  <defs
     id="defs367" />
  <g
     inkscape:label="Réteg 1"
     inkscape:groupmode="layer"
     id="layer1"
     transform="translate(-91.522944,-96.858434)">
    <g
       id="g237"
       transform="translate(-35.418215,-36.026961)">
      <path
         style="fill:#dfa7a3;stroke-width:0.0846667"
         d="m 128.97375,147.27951 c -0.37463,-0.38951 -0.67906,-0.62198 -0.94962,-0.72516 -0.62771,-0.23939 -1.0812,-0.88605 -1.08297,-1.54428 -5.6e-4,-0.20841 0.33057,-0.54393 0.53681,-0.54393 0.17289,0 0.17861,-0.0175 0.29478,-0.90256 0.13657,-1.04044 0.46555,-1.6864 1.26224,-2.4784 1.37889,-1.37079 2.96064,-1.72871 5.2717,-1.1929 0.89169,0.20673 1.79207,0.22247 2.10637,0.0368 0.26168,-0.15458 0.78825,-0.87197 0.72049,-0.9816 -0.025,-0.0405 -0.31885,-0.2106 -0.653,-0.37809 -0.46529,-0.23323 -0.83238,-0.52512 -1.56789,-1.24673 -0.81658,-0.80114 -1.01474,-1.04994 -1.32363,-1.66186 -0.58745,-1.16377 -0.88044,-2.30216 -0.61584,-2.39282 0.19346,-0.0663 1.56315,0.57486 2.29774,1.07558 0.28458,0.19397 0.56426,0.38096 0.6215,0.41553 0.0811,0.049 0.0923,-0.14342 0.0507,-0.87013 -0.0478,-0.83575 -0.0381,-0.93884 0.093,-0.98917 0.20711,-0.0795 0.49445,0.15746 1.25237,1.03268 1.00099,1.15592 1.5828,2.45439 1.814,4.04845 0.0434,0.29892 0.12353,0.52616 0.19949,0.56539 0.0699,0.0361 0.3937,0.18476 0.71967,0.3304 0.65506,0.2927 1.0974,0.67373 1.52513,1.31375 0.36287,0.54298 0.80305,1.47354 0.80313,1.69789 8e-5,0.21462 -0.43646,0.63998 -0.88893,0.86614 -0.18627,0.0931 -0.60537,0.2354 -0.93133,0.31619 -0.7799,0.19332 -0.99248,0.3096 -1.32828,0.72653 -0.15422,0.19148 -0.53757,0.65241 -0.85189,1.0243 -0.31433,0.37189 -0.5715,0.72685 -0.5715,0.78881 0,0.0619 0.1554,0.53671 0.34535,1.055 0.41043,1.11997 0.39118,1.18748 -0.33854,1.18748 -0.54784,0 -0.60875,-0.0491 -1.61825,-1.30488 -0.48305,-0.60089 -0.5477,-0.65321 -0.6277,-0.508 -0.18671,0.33886 -0.90655,0.97036 -1.37712,1.2081 -0.26954,0.13618 -0.56265,0.32796 -0.65136,0.42619 -0.15502,0.17164 -0.23567,0.17859 -2.07328,0.17859 h -1.91198 z m 11.07334,-6.6403 c 0.2535,-0.25351 -0.0343,-0.65359 -0.34509,-0.47968 -0.24488,0.13704 -0.12997,0.58128 0.15035,0.58128 0.0512,0 0.13886,-0.0457 0.19474,-0.1016 z"
         id="path251" />
      <path
         style="fill:#d9817b;stroke-width:0.0846667"
         d="m 129.22878,147.46363 c -0.18538,-0.16749 -0.41197,-0.42572 -0.50352,-0.57385 -0.12063,-0.19519 -0.27017,-0.29707 -0.54328,-0.37011 -0.49897,-0.13345 -0.94382,-0.56164 -1.06988,-1.0298 -0.13806,-0.5127 -0.0574,-0.75526 0.30095,-0.90498 0.34013,-0.14212 0.32402,-0.10482 0.44598,-1.03236 0.13069,-0.99392 0.47504,-1.67332 1.2315,-2.42969 1.31945,-1.31929 2.93626,-1.67448 5.21616,-1.1459 0.86508,0.20057 1.77535,0.2207 2.11182,0.0467 0.24018,-0.12421 0.85151,-0.87569 0.85151,-1.04673 0,-0.0496 -0.31433,-0.25274 -0.6985,-0.45139 -0.54124,-0.27987 -0.90266,-0.55952 -1.60535,-1.24213 -0.76234,-0.74055 -0.96673,-0.99737 -1.28261,-1.6116 -0.39203,-0.76227 -0.73154,-1.73914 -0.73154,-2.10483 0,-0.19193 0.0255,-0.20823 0.25428,-0.16247 0.38767,0.0775 1.55057,0.68298 2.2506,1.17173 0.34435,0.24044 0.64571,0.41754 0.66968,0.39357 0.024,-0.024 0.005,-0.24545 -0.0415,-0.49218 -0.10834,-0.57131 -0.10994,-1.41612 -0.003,-1.48234 0.14651,-0.0906 0.52467,0.23188 1.14233,0.974 1.0296,1.23704 1.54637,2.36974 1.7596,3.85677 l 0.10613,0.74018 0.59267,0.23954 c 1.10821,0.44792 1.63527,0.97262 2.26072,2.25065 0.40376,0.82505 0.38875,1.01269 -0.10996,1.37395 -0.37761,0.27354 -0.75842,0.42509 -1.62047,0.64487 -0.50101,0.12774 -0.61734,0.19798 -0.95665,0.57766 -0.93223,1.04315 -1.56331,1.82805 -1.56331,1.94437 0,0.0691 0.15467,0.54774 0.3437,1.06357 0.18903,0.51582 0.32014,0.97598 0.29134,1.02258 -0.0798,0.12912 -0.91206,0.1015 -1.10955,-0.0368 -0.0954,-0.0669 -0.47243,-0.505 -0.83775,-0.97367 -0.36532,-0.46867 -0.69523,-0.85212 -0.73311,-0.85212 -0.0379,0 -0.17167,0.1553 -0.29728,0.34512 -0.22683,0.34277 -1.05999,1.00954 -1.26145,1.00954 -0.0579,0 -0.26482,0.13335 -0.4599,0.29634 l -0.35468,0.29633 h -1.85442 -1.85441 z m 10.945,-6.81555 c 0.11948,-0.19097 0.006,-0.56346 -0.19143,-0.62599 -0.3927,-0.12464 -0.70058,0.41061 -0.40576,0.70542 0.13826,0.13826 0.49028,0.0914 0.59719,-0.0794 z"
         id="path249" />
      <path
         style="fill:#d8635d;stroke-width:0.0846667"
         d="m 129.06585,147.21098 c -0.23751,-0.25987 -0.43183,-0.50148 -0.43183,-0.53693 0,-0.0354 -0.16193,-0.11228 -0.35983,-0.17076 -0.51771,-0.15297 -0.87429,-0.45588 -1.03642,-0.8804 -0.21248,-0.55638 -0.15,-0.82979 0.23044,-1.00832 0.34068,-0.15986 0.33578,-0.14774 0.4805,-1.18986 0.12737,-0.91717 0.42472,-1.49465 1.14319,-2.22016 0.74079,-0.74804 1.17881,-1.00739 2.09137,-1.23828 0.59455,-0.15043 0.85541,-0.17134 1.59942,-0.12818 0.48895,0.0284 1.2319,0.12316 1.651,0.21066 0.86466,0.18053 1.68021,0.1762 2.04191,-0.0108 0.28499,-0.14738 0.79459,-0.81906 0.79406,-1.04661 -2.6e-4,-0.10853 -0.19842,-0.25659 -0.65617,-0.49026 -0.50677,-0.25869 -0.8712,-0.54456 -1.6036,-1.25792 -1.03271,-1.00586 -1.44184,-1.6434 -1.79542,-2.79773 -0.22297,-0.72795 -0.22955,-0.98592 -0.0251,-0.98592 0.25741,0 1.52851,0.65709 2.23713,1.15647 0.38296,0.26988 0.70303,0.44126 0.74525,0.39905 0.0422,-0.0422 0.0403,-0.21942 -0.004,-0.41259 -0.0996,-0.42963 -0.10632,-1.56626 -0.009,-1.56626 0.24654,0 1.41192,1.32713 1.898,2.16143 0.40331,0.69223 0.72665,1.63096 0.8272,2.40146 0.13618,1.04365 0.10046,0.98569 0.76354,1.23906 1.02696,0.39243 1.66797,1.01971 2.24475,2.19666 0.36438,0.74355 0.36903,0.97855 0.0251,1.26794 -0.3924,0.33018 -0.6515,0.44368 -1.48164,0.64904 -0.70223,0.17372 -0.77984,0.21533 -1.17521,0.63007 -0.60104,0.63048 -1.51291,1.73285 -1.5851,1.91624 -0.0386,0.0979 0.0626,0.49065 0.27422,1.06449 0.18443,0.5001 0.33575,0.95872 0.33627,1.01915 6.8e-4,0.0811 -0.13765,0.10327 -0.52816,0.0847 l -0.52911,-0.0252 -0.71143,-0.889 c -0.39129,-0.48895 -0.75927,-0.9175 -0.81774,-0.95233 -0.0697,-0.0415 -0.20889,0.0794 -0.40441,0.3516 -0.30824,0.42905 -0.81658,0.82922 -1.32812,1.04553 -0.16193,0.0685 -0.367,0.20596 -0.45571,0.30551 -0.15582,0.17489 -0.22659,0.18102 -2.08701,0.18102 h -1.92571 z m 11.08284,-6.47017 c 0.32415,-0.32416 0.12779,-0.762 -0.34174,-0.762 -0.24753,0 -0.42026,0.18911 -0.42026,0.4601 0,0.16865 0.299,0.47123 0.46566,0.47123 0.0699,0 0.2032,-0.0762 0.29634,-0.16933 z"
         id="path247" />
      <path
         style="fill:#da433b;stroke-width:0.0846667"
         d="m 129.05739,147.10774 c -0.38109,-0.39865 -0.67333,-0.62188 -0.95013,-0.72575 -0.47472,-0.17815 -0.78795,-0.52169 -0.91884,-1.00778 -0.11469,-0.42594 -0.0504,-0.55686 0.37375,-0.76057 0.26426,-0.12694 0.30985,-0.19004 0.30985,-0.42895 0,-1.09979 0.45123,-2.13623 1.29923,-2.98423 1.30812,-1.30812 2.78225,-1.64229 5.03305,-1.14093 1.00775,0.22447 1.86577,0.22831 2.28593,0.0102 0.41185,-0.21377 0.93578,-0.97338 0.81123,-1.17615 -0.0481,-0.0784 -0.40244,-0.31179 -0.78736,-0.51873 -0.9334,-0.50182 -2.20284,-1.74736 -2.69359,-2.64286 -0.36418,-0.66455 -0.8183,-1.9759 -0.74784,-2.15952 0.0328,-0.0855 0.097,-0.0905 0.2785,-0.0215 0.59573,0.22629 1.35415,0.63549 2.02947,1.095 0.54047,0.36775 0.76445,0.47746 0.84253,0.41266 0.0781,-0.0648 0.0836,-0.14802 0.0207,-0.31344 -0.0471,-0.12385 -0.10783,-0.54 -0.13499,-0.92478 -0.0591,-0.83747 0.0175,-0.886 0.53626,-0.33975 1.36143,1.43356 2.03283,2.75805 2.2497,4.43803 0.0934,0.72376 0.0939,0.72471 0.39851,0.84446 0.9127,0.35878 1.32319,0.60567 1.70917,1.028 0.37165,0.40663 1.17815,1.83423 1.17815,2.08544 0,0.30928 -0.83283,0.801 -1.73567,1.02479 -0.83877,0.20791 -0.95872,0.2864 -1.57074,1.02776 -0.30026,0.36371 -0.70785,0.84416 -0.90576,1.06765 -0.19791,0.2235 -0.35982,0.49081 -0.35981,0.59403 1e-5,0.10322 0.13336,0.5607 0.29633,1.01663 0.16297,0.45592 0.29631,0.88455 0.29631,0.9525 0,0.0915 -0.10785,0.12354 -0.41613,0.12354 -0.38988,0 -0.43832,-0.0252 -0.7675,-0.39916 -0.19324,-0.21953 -0.54851,-0.65768 -0.78949,-0.97366 -0.24097,-0.31598 -0.50276,-0.57451 -0.58176,-0.57451 -0.079,0 -0.22683,0.14806 -0.32854,0.32903 -0.21041,0.37437 -0.78934,0.84072 -1.34991,1.08739 -0.20955,0.0922 -0.45358,0.24939 -0.54229,0.34929 -0.15553,0.17514 -0.22661,0.18162 -1.98963,0.18162 h -1.82835 z m 11.12758,-6.33065 c 0.39062,-0.39062 -0.14094,-1.12141 -0.59511,-0.81815 -0.42863,0.2862 -0.23571,0.9463 0.27761,0.9499 0.10145,7.2e-4 0.24433,-0.0586 0.3175,-0.13175 z"
         id="path245" />
      <path
         style="fill:#e62c24;stroke-width:0.0846667"
         d="m 129.30938,147.29062 c -0.18762,-0.1695 -0.40655,-0.41894 -0.48651,-0.5543 -0.10299,-0.17436 -0.2523,-0.27304 -0.5121,-0.33846 -0.47902,-0.12061 -0.90404,-0.52736 -1.02658,-0.98243 -0.11518,-0.42775 -0.0539,-0.56552 0.3387,-0.76148 0.28225,-0.14088 0.29346,-0.16546 0.35451,-0.77782 0.11375,-1.14095 0.42358,-1.79853 1.23811,-2.62773 1.25527,-1.27788 2.77962,-1.61142 5.04884,-1.10474 1.00031,0.22336 1.80885,0.22631 2.23646,0.008 0.4104,-0.20937 0.97123,-0.96526 0.90502,-1.21979 -0.0307,-0.11782 -0.26414,-0.29431 -0.66961,-0.50615 -1.14186,-0.59658 -2.38964,-1.82037 -2.95232,-2.89557 -0.37157,-0.71003 -0.71621,-1.79704 -0.605,-1.90825 0.11384,-0.11384 1.32925,0.49815 2.23265,1.12419 0.63302,0.43868 0.77994,0.5089 0.84755,0.40511 0.045,-0.0691 0.0593,-0.20175 0.0318,-0.29489 -0.18101,-0.61297 -0.2834,-1.73566 -0.15829,-1.73566 0.15912,0 0.43738,0.2559 1.0024,0.92187 1.05069,1.23841 1.7437,2.84414 1.7437,4.04022 0,0.58928 0.003,0.59329 0.71966,0.87737 0.617,0.24466 1.02561,0.49631 1.32897,0.81844 0.32065,0.34049 1.06044,1.59329 1.13126,1.91572 0.0525,0.23886 0.0235,0.29973 -0.25883,0.54378 -0.34318,0.29665 -0.68472,0.43911 -1.60873,0.67103 -0.51887,0.13024 -0.64298,0.20216 -0.99671,0.57766 -0.80198,0.85132 -1.67028,1.92492 -1.66966,2.06443 3.4e-4,0.0784 0.13369,0.53355 0.29633,1.01153 0.16264,0.47798 0.29571,0.9087 0.29571,0.95714 0,0.0522 -0.1624,0.0776 -0.39835,0.0623 -0.39653,-0.0257 -0.40178,-0.0301 -1.14805,-0.95714 -0.41234,-0.51223 -0.80296,-0.94334 -0.86806,-0.95802 -0.0658,-0.0148 -0.22583,0.14598 -0.36059,0.36248 -0.28239,0.45371 -1.04768,1.06121 -1.33684,1.06121 -0.11012,0 -0.3304,0.1143 -0.48951,0.254 l -0.28929,0.254 h -1.78775 -1.78774 z m 10.92397,-6.46515 c 0.34966,-0.34965 0.0998,-1.016 -0.381,-1.016 -0.11641,0 -0.28786,0.0762 -0.381,0.16934 -0.34966,0.34966 -0.0998,1.016 0.381,1.016 0.11642,0 0.28787,-0.0762 0.381,-0.16934 z"
         id="path243" />
      <path
         style="fill:#f3241b;stroke-width:0.0846667"
         d="m 129.14332,146.92958 c -0.38332,-0.40621 -0.63603,-0.6021 -0.82824,-0.64205 -0.39857,-0.0828 -0.83895,-0.53065 -0.91371,-0.92917 -0.0539,-0.2871 -0.0359,-0.3482 0.14096,-0.47927 0.43839,-0.3249 0.47301,-0.38732 0.53149,-0.95811 0.10003,-0.97629 0.35217,-1.58498 0.94377,-2.27833 0.29038,-0.34032 0.70938,-0.73894 0.93111,-0.88581 1.14528,-0.7586 2.55552,-0.91212 4.39451,-0.47839 0.28259,0.0667 0.8605,0.12175 1.28424,0.12244 0.71083,0.001 0.79872,-0.0178 1.13631,-0.24448 0.45788,-0.30752 0.88395,-1.04715 0.74875,-1.29978 -0.0483,-0.0903 -0.20359,-0.22713 -0.34506,-0.30414 -1.33958,-0.72918 -2.49891,-1.74898 -3.0742,-2.70421 -0.46478,-0.77173 -0.95679,-2.13481 -0.77057,-2.13481 0.11597,0 0.78519,0.33213 1.32267,0.65643 1.50572,0.90851 2.0982,1.49286 3.70495,3.65417 0.56077,0.75432 0.70428,0.89595 0.99405,0.98105 0.53197,0.15624 1.16046,0.50927 1.45619,0.81796 0.40498,0.42273 1.12615,1.66938 1.12615,1.94671 0,0.42393 -0.73208,0.82213 -2.07416,1.12822 -0.38033,0.0867 -2.27206,2.11806 -2.38257,2.55838 -0.0268,0.10699 0.068,0.57294 0.21362,1.04998 0.14405,0.47169 0.24103,0.89141 0.21551,0.9327 -0.0726,0.1175 -0.43566,0.088 -0.55952,-0.0455 -0.0615,-0.0663 -0.26428,-0.31589 -0.45055,-0.55462 -0.18627,-0.23873 -0.56727,-0.70499 -0.84667,-1.03614 -0.2794,-0.33115 -0.74944,-0.89119 -1.04455,-1.24454 -0.77921,-0.93303 -1.04397,-1.1928 -1.21572,-1.1928 -0.2135,0 -0.19468,0.24166 0.0677,0.86952 0.47052,1.12578 0.34056,2.30406 -0.32542,2.95037 l -0.33879,0.32878 h -1.74532 -1.74532 z m 11.15353,-6.04679 c 0.25014,-0.22519 0.26135,-0.74847 0.0212,-0.98865 -0.26604,-0.26604 -0.70003,-0.22509 -0.96614,0.0912 -0.25338,0.30113 -0.26731,0.41688 -0.0911,0.75757 0.0811,0.15672 0.2287,0.27496 0.40217,0.32203 0.30328,0.0823 0.35753,0.0667 0.63393,-0.18211 z m -6.28538,6.05985 c 0.34543,-0.83128 0.38817,-1.71779 0.11848,-2.45745 -0.27695,-0.75956 -0.2868,-0.80856 -0.1536,-0.76418 0.122,0.0406 1.58424,1.75289 1.59457,1.86721 0.003,0.0351 -0.10162,0.23628 -0.23286,0.44715 -0.37214,0.59788 -1.52592,1.38698 -1.32659,0.90727 z m 4.55079,-8.94263 c -0.15074,-0.19224 -0.46518,-0.6245 -0.69873,-0.96057 -0.23356,-0.33606 -0.6856,-0.88253 -1.00453,-1.21436 -0.412,-0.42866 -0.58107,-0.66847 -0.58398,-0.8283 -0.002,-0.12374 -0.0443,-0.39642 -0.0935,-0.60597 -0.0954,-0.40652 -0.12867,-1.27 -0.0489,-1.27 0.30848,0 1.52261,1.44772 2.01241,2.3996 0.438,0.8512 0.75375,1.93438 0.71709,2.45999 l -0.0257,0.36915 z"
         id="path241" />
      <path
         style="fill:#9f231e;stroke-width:0.0846667"
         d="m 134.01147,146.94264 c 0.34543,-0.83128 0.38817,-1.71779 0.11848,-2.45745 -0.27695,-0.75956 -0.2868,-0.80856 -0.1536,-0.76418 0.122,0.0406 1.58424,1.75289 1.59457,1.86721 0.003,0.0351 -0.10162,0.23628 -0.23286,0.44715 -0.37214,0.59788 -1.52592,1.38698 -1.32659,0.90727 z m 4.55079,-8.94263 c -0.15074,-0.19224 -0.46518,-0.6245 -0.69873,-0.96057 -0.23356,-0.33606 -0.6856,-0.88253 -1.00453,-1.21436 -0.412,-0.42866 -0.58107,-0.66847 -0.58398,-0.8283 -0.002,-0.12374 -0.0443,-0.39642 -0.0935,-0.60597 -0.0954,-0.40652 -0.12867,-1.27 -0.0489,-1.27 0.30848,0 1.52261,1.44772 2.01241,2.3996 0.438,0.8512 0.75375,1.93438 0.71709,2.45999 l -0.0257,0.36915 z"
         id="path239" />
    </g>
  </g>
</svg>
