<svg width="1440" height="376" viewBox="0 0 1440 376" fill="none" xmlns="http://www.w3.org/2000/svg">
<g clip-path="url(#clip0_21_92)">
<path d="M0 334.928L26.7 317.717C53.3 300.506 107 266.083 160 220.151C213.3 174.649 267 116.562 320 93.972C373.3 71.3824 427 82.1394 480 128.394C533.3 174.649 587 254.251 640 306.207C693.3 357.518 747 381.183 800 375.051C853.3 369.35 907 334.928 960 306.207C1013.3 277.916 1067 254.251 1120 271.785C1173.3 288.673 1227 346.761 1280 334.928C1333.3 323.095 1387 243.494 1413 202.94L1440 162.817V2H1413.3C1386.7 2 1333 2 1280 2C1226.7 2 1173 2 1120 2C1066.7 2 1013 2 960 2C906.7 2 853 2 800 2C746.7 2 693 2 640 2C586.7 2 533 2 480 2C426.7 2 373 2 320 2C266.7 2 213 2 160 2C106.7 2 53 2 27 2H0V334.928Z" fill="#292929"/>
<path d="M0 304.785L26.7 287.514C53.3 270.242 107 235.7 160 189.608C213.3 143.947 267 85.6571 320 62.9887C373.3 40.3204 427 51.1148 480 97.531C533.3 143.947 587 223.826 640 275.964C693.3 327.453 747 351.201 800 345.048C853.3 339.327 907 304.785 960 275.964C1013.3 247.574 1067 223.826 1120 241.421C1173.3 258.369 1227 316.659 1280 304.785C1333.3 292.911 1387 213.032 1413 172.337L1440 132.073V2H1413.3C1386.7 2 1333 2 1280 2C1226.7 2 1173 2 1120 2C1066.7 2 1013 2 960 2C906.7 2 853 2 800 2C746.7 2 693 2 640 2C586.7 2 533 2 480 2C426.7 2 373 2 320 2C266.7 2 213 2 160 2C106.7 2 53 2 27 2H0V304.785Z" fill="#5F3A3A"/>
<path d="M0 269.765L26.7 252.905C53.3 236.044 107 202.324 160 157.328C213.3 112.753 267 55.8498 320 33.7206C373.3 11.5915 427 22.1292 480 67.4413C533.3 112.753 587 190.732 640 241.629C693.3 291.894 747 315.077 800 309.071C853.3 303.486 907 269.765 960 241.629C1013.3 213.915 1067 190.732 1120 207.909C1173.3 224.453 1227 281.357 1280 269.765C1333.3 258.174 1387 180.195 1413 140.468L1440 101.162V0H1413.3C1386.7 0 1333 0 1280 0C1226.7 0 1173 0 1120 0C1066.7 0 1013 0 960 0C906.7 0 853 0 800 0C746.7 0 693 0 640 0C586.7 0 533 0 480 0C426.7 0 373 0 320 0C266.7 0 213 0 160 0C106.7 0 53 0 27 0H0V269.765Z" fill="#942727"/>
</g>
<defs>
<clipPath id="clip0_21_92">
<rect width="1440" height="376" fill="white"/>
</clipPath>
</defs>
</svg>
