<svg width="1440" height="320" viewBox="0 0 1440 320" fill="none" xmlns="http://www.w3.org/2000/svg">
<g clip-path="url(#clip0_21_60)">
<path d="M0 320L26.7 272C53.3 224 107 128 160 80C213.3 32 267 32 320 32C373.3 32 427 32 480 74.7C533.3 117 587 203 640 213.3C693.3 224 747 160 800 154.7C853.3 149 907 203 960 224C1013.3 245 1067 235 1120 234.7C1173.3 235 1227 245 1280 256C1333.3 267 1387 277 1413 282.7L1440 288V0H1413.3C1386.7 0 1333 0 1280 0C1226.7 0 1173 0 1120 0C1066.7 0 1013 0 960 0C906.7 0 853 0 800 0C746.7 0 693 0 640 0C586.7 0 533 0 480 0C426.7 0 373 0 320 0C266.7 0 213 0 160 0C106.7 0 53 0 27 0H0V320Z" fill="#EF3333"/>
</g>
<defs>
<clipPath id="clip0_21_60">
<rect width="1440" height="320" fill="white"/>
</clipPath>
</defs>
</svg>
