<svg width="1440" height="320" viewBox="0 0 1440 320" fill="none" xmlns="http://www.w3.org/2000/svg">
<path d="M0 128L26.7 112C53.3 96 107 64 160 80C213.3 96 267 160 320 181.3C373.3 203 427 181 480 154.7C533.3 128 587 96 640 117.3C693.3 139 747 213 800 218.7C853.3 224 907 160 960 160C1013.3 160 1067 224 1120 218.7C1173.3 213 1227 139 1280 122.7C1333.3 107 1387 149 1413 170.7L1440 192V0H1413.3C1386.7 0 1333 0 1280 0C1226.7 0 1173 0 1120 0C1066.7 0 1013 0 960 0C906.7 0 853 0 800 0C746.7 0 693 0 640 0C586.7 0 533 0 480 0C426.7 0 373 0 320 0C266.7 0 213 0 160 0C106.7 0 53 0 27 0H0V128Z" fill="#5F3A3A"/>
</svg>
