<svg width="1440" height="320" viewBox="0 0 1440 320" fill="none" xmlns="http://www.w3.org/2000/svg">
<path d="M0 96L26.7 128C53.3 160 107 224 160 261.3C213.3 299 267 309 320 298.7C373.3 288 427 256 480 229.3C533.3 203 587 181 640 170.7C693.3 160 747 160 800 176C853.3 192 907 224 960 197.3C1013.3 171 1067 85 1120 53.3C1173.3 21 1227 43 1280 53.3C1333.3 64 1387 64 1413 64H1440V0H1413.3C1386.7 0 1333 0 1280 0C1226.7 0 1173 0 1120 0C1066.7 0 1013 0 960 0C906.7 0 853 0 800 0C746.7 0 693 0 640 0C586.7 0 533 0 480 0C426.7 0 373 0 320 0C266.7 0 213 0 160 0C106.7 0 53 0 27 0H0V96Z" fill="#333333"/>
</svg>
